HIERARCHY
ROOT Hips
{
	OFFSET 0.000001 107.585541 -0.292875
	CHANNELS 6 Xposition Yposition Zposition Xrotation Yrotation Zrotation
	JOINT Spine
	{
		OFFSET -0.023067 13.156998 0.957426
		CHANNELS 6 Xposition Yposition Zposition Xrotation Yrotation Zrotation
		JOINT Spine1
		{
			OFFSET 0.000000 9.894669 0.072741
			CHANNELS 3 Xrotation Yrotation Zrotation
			JOINT Spine2
			{
				OFFSET 0.000000 10.499985 -0.058234
				CHANNELS 3 Xrotation Yrotation Zrotation
				JOINT Neck
				{
					OFFSET -0.000000 26.776306 -4.691216
					CHANNELS 6 Xposition Yposition Zposition Xrotation Yrotation Zrotation
					JOINT Head
					{
						OFFSET 0.000000 14.063217 3.449322
						CHANNELS 6 Xposition Yposition Zposition Xrotation Yrotation Zrotation
						JOINT HeadTop_End
						{
							OFFSET 0.000000 19.645248 2.611582
							CHANNELS 6 Xposition Yposition Zposition Xrotation Yrotation Zrotation
							End Site
							{
								OFFSET 0.000000 14.113129 0.000000
							}
						}
						JOINT L_Eye
						{
							OFFSET 3.570282 7.264572 7.838836
							CHANNELS 6 Xposition Yposition Zposition Xrotation Yrotation Zrotation
							End Site
							{
								OFFSET 0.000000 14.113129 0.000000
							}
						}
						JOINT R_Eye
						{
							OFFSET -3.524154 7.264282 7.838838
							CHANNELS 6 Xposition Yposition Zposition Xrotation Yrotation Zrotation
							End Site
							{
								OFFSET 0.000000 14.113129 0.000000
							}
						}
					}
				}
				JOINT L_Shoulder
				{
					OFFSET 7.980431 21.886398 -6.266449
					CHANNELS 6 Xposition Yposition Zposition Xrotation Yrotation Zrotation
					JOINT L_Arm
					{
						OFFSET 10.677479 -5.478394 -0.078065
						CHANNELS 3 Xrotation Yrotation Zrotation
						JOINT L_ForeArm
						{
							OFFSET 27.567778 0.000015 0.000000
							CHANNELS 3 Xrotation Yrotation Zrotation
							JOINT L_Hand
							{
								OFFSET 27.500092 -0.000015 0.480016
								CHANNELS 3 Xrotation Yrotation Zrotation
								JOINT L_HandThumb1
								{
									OFFSET 5.751503 -2.607742 4.214736
									CHANNELS 6 Xposition Yposition Zposition Xrotation Yrotation Zrotation
									JOINT L_HandThumb2
									{
										OFFSET 2.728218 -1.585464 1.645159
										CHANNELS 6 Xposition Yposition Zposition Xrotation Yrotation Zrotation
										JOINT L_HandThumb3
										{
											OFFSET 2.690651 -1.563644 1.622507
											CHANNELS 6 Xposition Yposition Zposition Xrotation Yrotation Zrotation
											JOINT L_HandThumb4
											{
												OFFSET 2.811111 -1.633636 1.695147
												CHANNELS 6 Xposition Yposition Zposition Xrotation Yrotation Zrotation
												End Site
												{
													OFFSET 2.811104 -1.633652 1.695142
												}
											}
										}
									}
								}
								JOINT L_HandIndex1
								{
									OFFSET 13.704086 -1.118973 2.963548
									CHANNELS 6 Xposition Yposition Zposition Xrotation Yrotation Zrotation
									JOINT L_HandIndex2
									{
										OFFSET 2.538002 -0.000046 0.044317
										CHANNELS 3 Xrotation Yrotation Zrotation
										JOINT L_HandIndex3
										{
											OFFSET 3.551018 0.000015 0.062044
											CHANNELS 3 Xrotation Yrotation Zrotation
											JOINT L_HandIndex4
											{
												OFFSET 3.082214 0.000031 0.053894
												CHANNELS 3 Xrotation Yrotation Zrotation
												End Site
												{
													OFFSET 3.082214 0.000046 0.053895
												}
											}
										}
									}
								}
								JOINT L_HandMiddle1
								{
									OFFSET 13.314011 -0.054794 0.195248
									CHANNELS 6 Xposition Yposition Zposition Xrotation Yrotation Zrotation
									JOINT L_HandMiddle2
									{
										OFFSET 4.054405 -0.000015 0.070800
										CHANNELS 3 Xrotation Yrotation Zrotation
										JOINT L_HandMiddle3
										{
											OFFSET 2.984230 -0.000031 0.052059
											CHANNELS 3 Xrotation Yrotation Zrotation
											JOINT L_HandMiddle4
											{
												OFFSET 3.040154 -0.000031 0.053016
												CHANNELS 3 Xrotation Yrotation Zrotation
												End Site
												{
													OFFSET 3.040154 0.000000 0.053016
												}
											}
										}
									}
								}
								JOINT L_HandRing1
								{
									OFFSET 12.889366 0.014862 -3.304775
									CHANNELS 6 Xposition Yposition Zposition Xrotation Yrotation Zrotation
									JOINT L_HandRing2
									{
										OFFSET 4.066383 0.000000 0.071006
										CHANNELS 3 Xrotation Yrotation Zrotation
										JOINT L_HandRing3
										{
											OFFSET 2.688652 0.000061 0.047021
											CHANNELS 3 Xrotation Yrotation Zrotation
											JOINT L_HandRing4
											{
												OFFSET 2.892899 0.000000 0.050566
												CHANNELS 3 Xrotation Yrotation Zrotation
												End Site
												{
													OFFSET 2.892906 0.000015 0.050566
												}
											}
										}
									}
								}
								JOINT L_HandPinky1
								{
									OFFSET 12.770164 -1.052109 -6.055603
									CHANNELS 6 Xposition Yposition Zposition Xrotation Yrotation Zrotation
									JOINT L_HandPinky2
									{
										OFFSET 3.092682 -0.000046 0.054011
										CHANNELS 3 Xrotation Yrotation Zrotation
										JOINT L_HandPinky3
										{
											OFFSET 2.176254 0.000031 0.038088
											CHANNELS 3 Xrotation Yrotation Zrotation
											JOINT L_HandPinky4
											{
												OFFSET 2.208496 -0.000031 0.038607
												CHANNELS 3 Xrotation Yrotation Zrotation
												End Site
												{
													OFFSET 2.208504 -0.000031 0.038607
												}
											}
										}
									}
								}
							}
						}
					}
				}
				JOINT R_Shoulder
				{
					OFFSET -7.980434 21.886810 -6.266449
					CHANNELS 6 Xposition Yposition Zposition Xrotation Yrotation Zrotation
					JOINT R_Arm
					{
						OFFSET -10.677509 -5.479004 -0.078070
						CHANNELS 3 Xrotation Yrotation Zrotation
						JOINT R_ForeArm
						{
							OFFSET -27.567785 0.000000 -0.000000
							CHANNELS 3 Xrotation Yrotation Zrotation
							JOINT R_Hand
							{
								OFFSET -27.500015 0.000000 0.480015
								CHANNELS 3 Xrotation Yrotation Zrotation
								JOINT R_HandThumb1
								{
									OFFSET -5.971848 -2.424500 3.942988
									CHANNELS 6 Xposition Yposition Zposition Xrotation Yrotation Zrotation
									JOINT R_HandThumb2
									{
										OFFSET -2.728195 -1.584976 1.645155
										CHANNELS 6 Xposition Yposition Zposition Xrotation Yrotation Zrotation
										JOINT R_HandThumb3
										{
											OFFSET -2.690704 -1.563995 1.622524
											CHANNELS 6 Xposition Yposition Zposition Xrotation Yrotation Zrotation
											JOINT R_HandThumb4
											{
												OFFSET -2.811142 -1.633011 1.695130
												CHANNELS 6 Xposition Yposition Zposition Xrotation Yrotation Zrotation
												End Site
												{
													OFFSET -2.811142 -1.632996 1.695138
												}
											}
										}
									}
								}
								JOINT R_HandIndex1
								{
									OFFSET -13.521736 -0.054581 0.198885
									CHANNELS 6 Xposition Yposition Zposition Xrotation Yrotation Zrotation
									JOINT R_HandIndex2
									{
										OFFSET -4.381210 0.000015 0.076519
										CHANNELS 3 Xrotation Yrotation Zrotation
										JOINT R_HandIndex3
										{
											OFFSET -3.478577 0.000031 0.060751
											CHANNELS 3 Xrotation Yrotation Zrotation
											JOINT R_HandIndex4
											{
												OFFSET -6.319054 -0.000015 0.110473
												CHANNELS 3 Xrotation Yrotation Zrotation
												End Site
												{
													OFFSET -6.319061 0.000015 0.110474
												}
											}
										}
									}
								}
								JOINT R_HandRing1
								{
									OFFSET -12.702789 0.785950 -3.722343
									CHANNELS 6 Xposition Yposition Zposition Xrotation Yrotation Zrotation
									JOINT R_HandRing2
									{
										OFFSET -4.066383 0.000000 0.070999
										CHANNELS 3 Xrotation Yrotation Zrotation
										JOINT R_HandRing3
										{
											OFFSET -2.688583 0.000015 0.047006
											CHANNELS 3 Xrotation Yrotation Zrotation
											JOINT R_HandRing4
											{
												OFFSET -2.892967 -0.000015 0.050556
												CHANNELS 3 Xrotation Yrotation Zrotation
												End Site
												{
													OFFSET -2.892960 0.000015 0.050555
												}
											}
										}
									}
								}
								JOINT R_HandPinky1
								{
									OFFSET -12.544357 -0.205673 -6.499258
									CHANNELS 6 Xposition Yposition Zposition Xrotation Yrotation Zrotation
									JOINT R_HandPinky2
									{
										OFFSET -3.092621 0.000000 0.053982
										CHANNELS 3 Xrotation Yrotation Zrotation
										JOINT R_HandPinky3
										{
											OFFSET -2.176262 0.000000 0.037988
											CHANNELS 3 Xrotation Yrotation Zrotation
											JOINT R_HandPinky4
											{
												OFFSET -2.208572 0.000000 0.038550
												CHANNELS 3 Xrotation Yrotation Zrotation
												End Site
												{
													OFFSET -2.208565 0.000000 0.038550
												}
											}
										}
									}
								}
							}
						}
					}
				}
			}
		}
	}
	JOINT L_UpLeg
	{
		OFFSET 10.121319 -5.316734 0.163048
		CHANNELS 6 Xposition Yposition Zposition Xrotation Yrotation Zrotation
		JOINT L_Leg
		{
			OFFSET -0.000002 -40.854481 0.206897
			CHANNELS 3 Xrotation Yrotation Zrotation
			JOINT L_Foot
			{
				OFFSET 0.000002 -52.055374 -3.073691
				CHANNELS 3 Xrotation Yrotation Zrotation
				JOINT L_ToeBase
				{
					OFFSET 1.169127 -9.354687 13.784521
					CHANNELS 6 Xposition Yposition Zposition Xrotation Yrotation Zrotation
					JOINT L_Toe_End
					{
						OFFSET 0.516993 -0.004916 8.312323
						CHANNELS 6 Xposition Yposition Zposition Xrotation Yrotation Zrotation
						End Site
						{
							OFFSET 0.516995 -0.004916 8.312323
						}
					}
				}
			}
		}
	}
	JOINT R_UpLeg
	{
		OFFSET -10.121301 -5.316544 0.163048
		CHANNELS 6 Xposition Yposition Zposition Xrotation Yrotation Zrotation
		JOINT R_Leg
		{
			OFFSET 0.000055 -40.854687 0.206898
			CHANNELS 3 Xrotation Yrotation Zrotation
			JOINT R_Foot
			{
				OFFSET -0.000054 -52.055359 -3.073693
				CHANNELS 3 Xrotation Yrotation Zrotation
				JOINT R_ToeBase
				{
					OFFSET -1.169123 -9.354716 13.784500
					CHANNELS 6 Xposition Yposition Zposition Xrotation Yrotation Zrotation
					JOINT R_Toe_End
					{
						OFFSET -0.516972 -0.004950 8.311937
						CHANNELS 6 Xposition Yposition Zposition Xrotation Yrotation Zrotation
						End Site
						{
							OFFSET -0.516973 -0.004951 8.311935
						}
					}
				}
			}
		}
	}
}
MOTION
Frames: 4
Frame Time: 0.033333
0.297382 96.379379 -1.967625 12.160475 -19.531332 1.777915 -0.023069 13.156985 0.957425 3.260966 -0.615464 1.118674 8.252524 -1.097855 0.671714 8.262624 -1.049267 0.605783 -0.000000 26.776321 -4.691220 -6.340835 3.736273 -2.187546 -0.000002 14.063210 3.449321 -23.618504 16.114026 0.657975 0.000000 19.645248 2.611584 -0.000000 -0.000000 -0.000000 3.570282 7.264587 7.838838 -0.000000 -0.000000 -0.000000 -3.524153 7.264297 7.838838 -0.000000 -0.000000 -0.000000 7.980431 21.886410 -6.266466 0.493397 5.237153 -10.779931 -8.596972 -21.179206 -55.195749 -0.000312 -80.569314 -0.000263 19.382928 4.448032 19.619853 5.751504 -2.607729 4.214731 -1.513687 -12.037678 3.400859 2.728227 -1.585479 1.645146 5.421044 29.310480 2.310648 2.690669 -1.563650 1.622509 0.264749 12.225288 3.549614 2.811112 -1.633628 1.695131 -0.000000 0.000003 -0.000000 13.704092 -1.118968 2.963539 1.225611 3.263346 -26.856679 1.240142 3.154279 -27.057753 0.432835 1.651095 -13.514737 -0.000000 0.000004 -0.000000 13.314015 -0.054762 0.195243 1.224491 3.261679 -26.841448 1.240481 3.154552 -27.071731 0.432253 1.649969 -13.515029 -0.000000 0.000001 -0.000000 12.889350 0.014858 -3.304786 1.225631 3.263342 -26.857682 1.240471 3.155198 -27.057175 0.432739 1.649809 -13.514131 -0.000000 -0.000002 -0.000000 12.770156 -1.052110 -6.055607 3.043184 6.888569 -26.488694 1.258735 -0.906883 -27.498053 0.432741 1.649110 -13.513220 -0.000000 0.000005 0.000000 -7.980430 21.886826 -6.266456 1.791486 5.015193 10.515478 -17.587829 20.433110 65.964854 -0.000049 89.458744 -0.000302 26.710385 -5.724291 -1.889804 -5.971840 -2.424525 3.942982 -2.005739 12.265091 -3.938158 -2.728195 -1.585000 1.645179 6.452010 -29.979244 -1.463735 -2.690720 -1.563969 1.622509 -0.367607 -10.520088 -3.116821 -2.811163 -1.633010 1.695148 0.000003 -0.000002 0.000002 -13.521740 -0.054597 0.198886 1.185979 -3.094004 26.871861 1.199531 -2.983322 27.070987 0.422700 -1.563929 13.522637 0.000000 0.000007 0.000002 -12.702797 0.785922 -3.722344 1.185843 -3.093741 26.871651 1.200034 -2.984599 27.070915 0.422626 -1.562344 13.522918 -0.000001 -0.000001 -0.000001 -12.544353 -0.205703 -6.499257 1.185711 -3.093470 26.871646 1.199323 -2.983488 27.070893 0.422330 -1.562874 13.522924 -0.000000 0.000001 -0.000002 10.121318 -5.316734 0.163047 -50.277200 6.641850 24.959067 37.542053 8.141503 0.970633 3.539641 0.550118 -13.973387 1.169124 -9.354692 13.784520 0.000516 0.000002 -0.000003 0.516995 -0.004915 8.312323 0.000001 -0.000001 -0.000000 -10.121304 -5.316552 0.163047 -48.389442 -9.393901 -17.926023 46.293714 -8.257805 2.178481 -6.785357 -1.127246 9.938087 -1.169125 -9.354715 13.784503 -0.003050 0.000019 0.000001 -0.516971 -0.004952 8.311941 0.000003 0.000004 0.000000 
0.308329 96.393890 -1.983409 12.137688 -19.713133 1.775380 -0.023067 13.157001 0.957428 3.234085 -0.531832 1.127984 8.198004 -0.920679 0.692336 8.207675 -0.871288 0.623251 -0.000001 26.776320 -4.691205 -6.490226 3.744649 -2.307793 -0.000000 14.063203 3.449307 -23.841072 15.933581 0.873979 0.000000 19.645233 2.611583 -0.000000 0.000000 -0.000000 3.570282 7.264557 7.838838 -0.000000 0.000000 -0.000000 -3.524153 7.264267 7.838838 -0.000000 0.000000 -0.000000 7.980437 21.886429 -6.266450 0.491509 5.264677 -10.797944 -8.620891 -20.947417 -55.422443 -0.000178 -80.591287 -0.000108 19.254631 4.474838 19.842825 5.751512 -2.607762 4.214728 -1.513683 -12.037671 3.400859 2.728226 -1.585450 1.645146 5.421042 29.310476 2.310648 2.690665 -1.563646 1.622495 0.264753 12.225295 3.549615 2.811107 -1.633633 1.695149 0.000003 0.000006 0.000005 13.704092 -1.118991 2.963544 1.225612 3.263348 -26.856681 1.240146 3.154282 -27.057757 0.432834 1.651093 -13.514732 -0.000000 -0.000002 -0.000000 13.314023 -0.054792 0.195243 1.224491 3.261679 -26.841452 1.240481 3.154557 -27.071738 0.432251 1.649962 -13.515031 0.000000 0.000001 -0.000000 12.889358 0.014836 -3.304780 1.225635 3.263343 -26.857682 1.240472 3.155199 -27.057180 0.432737 1.649806 -13.514130 -0.000000 -0.000002 -0.000000 12.770164 -1.052125 -6.055615 3.043185 6.888569 -26.488693 1.258730 -0.906887 -27.498053 0.432743 1.649116 -13.513221 0.000000 0.000005 -0.000000 -7.980442 21.886831 -6.266445 1.760528 4.933490 10.281177 -17.410617 20.274081 65.596174 0.001178 89.652708 -0.002090 26.056745 -5.782507 -1.944567 -5.971846 -2.424501 3.942982 -2.005739 12.265087 -3.938159 -2.728192 -1.585010 1.645160 6.452013 -29.979244 -1.463733 -2.690716 -1.563971 1.622509 -0.367607 -10.520086 -3.116820 -2.811156 -1.633023 1.695145 -0.000001 -0.000001 0.000002 -13.521725 -0.054574 0.198894 1.185980 -3.094006 26.871861 1.199532 -2.983322 27.070987 0.422699 -1.563937 13.522634 0.000001 0.000006 -0.000000 -12.702789 0.785952 -3.722332 1.185839 -3.093742 26.871653 1.200035 -2.984600 27.070920 0.422625 -1.562347 13.522922 0.000001 0.000000 0.000002 -12.544346 -0.205670 -6.499257 1.185708 -3.093471 26.871648 1.199325 -2.983492 27.070893 0.422331 -1.562874 13.522925 -0.000000 -0.000002 -0.000001 10.121321 -5.316734 0.163043 -50.232671 6.758904 25.154400 37.524912 8.086892 0.867233 3.558032 0.546319 -13.937761 1.169125 -9.354693 13.784522 0.000485 -0.000007 0.000007 0.516995 -0.004915 8.312317 0.000001 -0.000002 0.000000 -10.121304 -5.316550 0.163057 -48.334995 -9.320272 -17.759014 46.195462 -8.143200 2.092633 -6.741166 -1.119288 9.944237 -1.169122 -9.354715 13.784499 -0.003052 0.000029 0.000002 -0.516976 -0.004952 8.311937 0.000003 0.000002 0.000000 
0.342576 96.403275 -1.985057 12.114454 -19.907145 1.771427 -0.023067 13.156998 0.957427 3.211424 -0.465914 1.138024 8.155066 -0.780847 0.715584 8.164487 -0.730554 0.643989 0.000001 26.776308 -4.691211 -6.618713 3.754360 -2.393383 0.000001 14.063212 3.449332 -24.022424 15.828041 1.011519 -0.000000 19.645218 2.611581 -0.000000 0.000000 -0.000000 3.570282 7.264572 7.838836 -0.000000 0.000000 -0.000000 -3.524153 7.264282 7.838838 -0.000000 0.000000 -0.000000 7.980439 21.886389 -6.266445 0.489822 5.293421 -10.821937 -8.645381 -20.734579 -55.626775 -0.000220 -80.607461 -0.000156 19.130790 4.501481 20.048980 5.751496 -2.607771 4.214743 -1.513685 -12.037674 3.400855 2.728225 -1.585474 1.645146 5.421043 29.310483 2.310652 2.690654 -1.563647 1.622502 0.264753 12.225292 3.549613 2.811105 -1.633616 1.695148 -0.000000 0.000003 -0.000000 13.704084 -1.118968 2.963551 1.225612 3.263347 -26.856679 1.240142 3.154281 -27.057753 0.432835 1.651095 -13.514734 -0.000000 -0.000001 -0.000000 13.314023 -0.054777 0.195246 1.224490 3.261677 -26.841448 1.240482 3.154551 -27.071735 0.432251 1.649963 -13.515030 0.000000 0.000001 0.000000 12.889358 0.014828 -3.304775 1.225632 3.263341 -26.857684 1.240472 3.155198 -27.057180 0.432738 1.649806 -13.514129 0.000000 0.000003 0.000000 12.770164 -1.052125 -6.055605 3.043185 6.888569 -26.488694 1.258730 -0.906885 -27.498053 0.432742 1.649116 -13.513219 0.000000 -0.000001 -0.000000 -7.980441 21.886789 -6.266445 1.733585 4.856363 10.092329 -17.245789 20.174903 65.310925 -0.000749 89.807289 0.000094 25.498054 -5.836139 -1.973577 -5.971835 -2.424541 3.942974 -2.005738 12.265090 -3.938160 -2.728189 -1.584997 1.645171 6.452014 -29.979251 -1.463741 -2.690707 -1.563984 1.622508 -0.367610 -10.520087 -3.116824 -2.811172 -1.633008 1.695145 -0.000002 -0.000000 0.000006 -13.521725 -0.054598 0.198870 1.185976 -3.094004 26.871865 1.199534 -2.983324 27.070990 0.422702 -1.563942 13.522631 -0.000001 0.000001 0.000003 -12.702805 0.785922 -3.722357 1.185842 -3.093740 26.871653 1.200035 -2.984599 27.070917 0.422625 -1.562344 13.522920 0.000002 -0.000001 0.000002 -12.544339 -0.205704 -6.499271 1.185707 -3.093467 26.871646 1.199321 -2.983486 27.070891 0.422329 -1.562875 13.522923 0.000001 0.000002 -0.000001 10.121317 -5.316731 0.163044 -50.201364 6.858678 25.339327 37.558937 8.055753 0.768652 3.553443 0.544258 -13.916643 1.169125 -9.354691 13.784523 0.000451 -0.000010 0.000004 0.516993 -0.004915 8.312325 0.000001 -0.000001 0.000000 -10.121302 -5.316536 0.163065 -48.284694 -9.252923 -17.605665 46.094061 -8.002939 2.000329 -6.690295 -1.114007 9.961240 -1.169120 -9.354712 13.784495 -0.003054 0.000030 -0.000000 -0.516976 -0.004952 8.311943 0.000003 0.000002 0.000000 
0.396382 96.406860 -1.973683 12.090389 -20.111951 1.766715 -0.023067 13.157019 0.957427 3.195877 -0.429584 1.150647 8.130997 -0.703133 0.744649 8.140459 -0.651888 0.671449 -0.000000 26.776312 -4.691208 -6.704858 3.764292 -2.412893 -0.000001 14.063213 3.449310 -24.121190 15.852388 1.000893 0.000003 19.645248 2.611585 -0.000000 0.000000 -0.000000 3.570283 7.264587 7.838838 -0.000000 0.000000 -0.000000 -3.524153 7.264297 7.838838 -0.000000 0.000000 -0.000000 7.980440 21.886393 -6.266455 0.488328 5.325250 -10.856527 -8.669189 -20.562903 -55.790273 -0.000199 -80.614646 -0.000146 19.019667 4.526289 20.217235 5.751515 -2.607731 4.214732 -1.513689 -12.037669 3.400854 2.728222 -1.585463 1.645152 5.421040 29.310480 2.310650 2.690669 -1.563661 1.622518 0.264756 12.225298 3.549617 2.811111 -1.633613 1.695156 -0.000001 0.000002 0.000003 13.704100 -1.118991 2.963544 1.225615 3.263348 -26.856685 1.240138 3.154279 -27.057752 0.432837 1.651096 -13.514736 -0.000000 0.000000 0.000000 13.314023 -0.054762 0.195241 1.224489 3.261679 -26.841448 1.240478 3.154550 -27.071738 0.432253 1.649970 -13.515029 0.000000 0.000004 0.000000 12.889365 0.014858 -3.304786 1.225629 3.263342 -26.857680 1.240471 3.155202 -27.057175 0.432739 1.649807 -13.514129 -0.000001 -0.000004 -0.000000 12.770164 -1.052117 -6.055605 3.043186 6.888570 -26.488691 1.258729 -0.906886 -27.498055 0.432742 1.649113 -13.513219 -0.000000 0.000003 -0.000000 -7.980431 21.886801 -6.266451 1.716194 4.791371 9.997899 -17.102872 20.151174 65.178480 0.014931 89.897796 -0.015659 25.129499 -5.885297 -1.952610 -5.971841 -2.424514 3.942977 -2.005740 12.265089 -3.938160 -2.728197 -1.585000 1.645171 6.452011 -29.979244 -1.463731 -2.690713 -1.563987 1.622505 -0.367606 -10.520091 -3.116819 -2.811145 -1.633006 1.695146 -0.000004 -0.000003 0.000004 -13.521732 -0.054590 0.198891 1.185981 -3.094006 26.871863 1.199535 -2.983325 27.070989 0.422700 -1.563936 13.522635 0.000002 0.000003 0.000001 -12.702805 0.785953 -3.722344 1.185844 -3.093742 26.871651 1.200034 -2.984596 27.070917 0.422620 -1.562347 13.522917 0.000000 -0.000001 -0.000001 -12.544353 -0.205673 -6.499262 1.185711 -3.093473 26.871650 1.199324 -2.983482 27.070890 0.422333 -1.562874 13.522925 0.000001 0.000004 -0.000001 10.121316 -5.316725 0.163045 -50.180228 6.938374 25.508632 37.640797 8.051383 0.680925 3.523454 0.545212 -13.908190 1.169120 -9.354693 13.784522 0.000325 0.000002 0.000006 0.517000 -0.004915 8.312321 0.000001 -0.000001 0.000000 -10.121302 -5.316526 0.163056 -48.241582 -9.196173 -17.471373 45.995211 -7.838905 1.908102 -6.635173 -1.111257 9.983111 -1.169121 -9.354714 13.784499 -0.003053 0.000030 -0.000000 -0.516974 -0.004952 8.311939 0.000003 0.000002 0.000000 
